Coordinates
version=1
nRows=26
nColumns=24
inDegrees=yes

Units are S.I. units (second, meters, Newtons, ...)
Angles are in degrees.

endheader
time	pelvis_tilt	pelvis_list	pelvis_rotation	pelvis_tx	pelvis_ty	pelvis_tz	hip_flexion_r	hip_adduction_r	hip_rotation_r	knee_angle_r	ankle_angle_r	subtalar_angle_r	mtp_angle_r	hip_flexion_l	hip_adduction_l	hip_rotation_l	knee_angle_l	ankle_angle_l	subtalar_angle_l	mtp_angle_l	lumbar_extension	lumbar_bending	lumbar_rotation
      0.45400000	     -1.28126365	      5.13811464	      3.45220299	     -0.78465538	      0.98028507	      0.29212552	     28.20388217	     -3.84036322	     -1.84920024	    -13.39689275	      9.01615070	     -5.16285178	     -0.01983853	    -14.11725343	      9.19243731	      3.92189870	     -6.83892433	     10.55142593	     -4.76664569	      0.54281435	      0.14807563	     -3.73303262	     -1.31466942
      0.45816667	     -1.36608972	      5.15853219	      3.50393890	     -0.77858848	      0.97949208	      0.29229874	     28.15752864	     -3.79802460	     -1.92265138	    -13.37027171	      8.87335093	     -5.02127599	     -0.07594743	    -13.94789087	      9.16522950	      3.69002954	     -7.73212434	     10.75053723	     -4.29918933	      0.70262896	      0.31380938	     -3.76708223	     -1.34953762
      0.46233333	     -1.41348822	      5.15159658	      3.54392040	     -0.77248088	      0.97879267	      0.29248257	     28.05967023	     -3.71885077	     -1.96487367	    -13.39075964	      8.69191209	     -4.95735305	     -0.10035064	    -13.78456607	      9.10779608	      3.43141619	     -8.68984288	     10.95138305	     -3.81953902	      0.88599569	      0.42432852	     -3.75898985	     -1.41125322
      0.46650000	     -1.45556723	      5.14593389	      3.55917769	     -0.76634598	      0.97811649	      0.29270411	     27.97122566	     -3.63065684	     -1.98135750	    -13.49976389	      8.49465778	     -4.94893317	     -0.08972112	    -13.60274819	      9.05300342	      3.13739043	     -9.68373817	     11.11734125	     -3.34990677	      1.12843946	      0.53720123	     -3.74004583	     -1.45658852
      0.47066667	     -1.50989264	      5.12631643	      3.59583680	     -0.76016623	      0.97747209	      0.29290740	     27.86672273	     -3.53613660	     -1.98141076	    -13.60906102	      8.20278360	     -4.94868952	     -0.04975095	    -13.38469243	      8.97885881	      2.89148310	    -10.72267828	     11.21768270	     -2.92584461	      1.36577462	      0.68076447	     -3.72444270	     -1.49053399
      0.47483333	     -1.56251993	      5.09710454	      3.60604765	     -0.75397813	      0.97685061	      0.29314911	     27.78611843	     -3.42152912	     -1.95620545	    -13.81723605	      7.89335121	     -5.04149924	      0.03543530	    -13.12852291	      8.89640786	      2.59732481	    -11.82891889	     11.29630504	     -2.49674938	      1.68412514	      0.80847264	     -3.68034636	     -1.52730288
      0.47900000	     -1.61478084	      5.05368053	      3.62039557	     -0.74775843	      0.97626248	      0.29340002	     27.68903222	     -3.29255076	     -1.90541864	    -14.03472242	      7.52398707	     -5.16599146	      0.15485353	    -12.84875128	      8.79536126	      2.32796207	    -12.97922086	     11.31253275	     -2.10318484	      2.04936853	      0.94699485	     -3.62197427	     -1.54538993
      0.48316667	     -1.66670748	      5.01292853	      3.62713174	     -0.74152851	      0.97571764	      0.29366544	     27.59667108	     -3.16493474	     -1.83235784	    -14.29739934	      7.11777539	     -5.31758974	      0.30198480	    -12.54316495	      8.69833592	      2.08009773	    -14.16280636	     11.26131098	     -1.76474188	      2.46079640	      1.08727175	     -3.56912887	     -1.55109290
      0.48733333	     -1.69624570	      4.95821269	      3.63751157	     -0.73525003	      0.97525908	      0.29387337	     27.48175657	     -3.03893965	     -1.82078922	    -14.59425022	      6.60081399	     -5.36947565	      0.35390869	    -12.28074284	      8.60436471	      1.99982920	    -15.30478861	     11.04046299	     -1.70775163	      2.61904057	      1.19965300	     -3.47733446	     -1.52886386
      0.49150000	     -1.76326331	      4.89547888	      3.62339119	     -0.72903274	      0.97472608	      0.29423844	     27.41205765	     -2.86950937	     -1.63237357	    -14.92448323	      6.24113898	     -5.74837611	      0.53990079	    -11.85096933	      8.46528951	      1.62851013	    -16.67576278	     10.96707439	     -1.19510731	      3.13287519	      1.36188797	     -3.41659107	     -1.53218692
      0.49566667	     -1.81402568	      4.81007622	      3.61304274	     -0.72275539	      0.97431726	      0.29454216	     27.30136540	     -2.68859032	     -1.46640967	    -15.22078496	      5.67340427	     -6.17503069	      2.45574481	    -11.46731731	      8.32641378	      1.45731284	    -17.95422271	     10.52548642	     -1.19813034	      8.60675937	      1.51649470	     -3.29780532	     -1.45703257
      0.49983333	     -1.86612429	      4.74292006	      3.61113082	     -0.71650824	      0.97389100	      0.29483157	     27.23754484	     -2.54974044	     -1.40255917	    -15.62664485	      5.19763379	     -6.22190724	      2.46579287	    -11.02185359	      8.19860896	      1.27347725	    -19.35734328	     10.18444299	     -0.96647211	      8.66889871	      1.65867380	     -3.21939400	     -1.44975331
      0.50400000	     -1.90842627	      4.62655688	      3.57932917	     -0.71026583	      0.97350662	      0.29522230	     27.16076361	     -2.32958454	     -1.21666742	    -16.04484522	      4.80125681	     -6.66728875	      2.50323718	    -10.53048731	      8.00301420	      0.98801328	    -20.83693245	      9.80651704	     -0.65194280	      8.91362402	      1.79467996	     -3.06889670	     -1.40362419
      0.50816667	     -1.95388812	      4.50116379	      3.55209016	     -0.70404625	      0.97315673	      0.29561267	     27.08721384	     -2.10532763	     -1.03070657	    -16.46643622	      4.37840039	     -7.08406976	      2.54706271	     -9.99627484	      7.80076972	      0.75677000	    -22.37106548	      9.32047916	     -0.44110896	      9.32996218	      1.93279618	     -2.90876176	     -1.34080084
      0.51233333	     -2.02575581	      4.39840744	      3.51460766	     -0.69788068	      0.97276239	      0.29597729	     27.09265964	     -1.91819820	     -0.89234485	    -16.98756735	      3.94769987	     -7.34520361	      2.56412741	     -9.39358081	      7.63445325	      0.56442355	    -23.96612793	      8.79069805	     -0.33526750	      9.62586254	      2.08968865	     -2.77976927	     -1.27591403
      0.51650000	     -2.01165268	      4.19823699	      3.44806101	     -0.69166163	      0.97255594	      0.29648579	     26.93067028	     -1.58322541	     -0.58241997	    -17.36604132	      3.55810742	     -7.98115316	      2.60393478	     -8.83433746	      7.32852385	      0.25128877	    -25.61047487	      8.11212102	     -0.13776490	     10.80301498	      2.16125981	     -2.52707665	     -1.19319519
      0.52066667	     -2.07937226	      4.07060092	      3.44956255	     -0.68552740	      0.97223587	      0.29680167	     26.94475863	     -1.40576713	     -0.54913628	    -17.93500234	      3.29170703	     -8.03363579	      2.60297531	     -8.14587336	      7.12361788	      0.12715962	    -27.31974758	      7.34719728	     -0.07105144	     11.02519828	      2.32772395	     -2.37328270	     -1.11650639
      0.52483333	     -2.12823662	      3.89345488	      3.39075257	     -0.67945449	      0.97189698	      0.29727532	     26.95711749	     -1.12813372	     -0.37296525	    -18.53280694	      3.05693315	     -8.45399857	      2.58643375	     -7.41125044	      6.84157687	     -0.14643384	    -29.12414265	      6.61145676	      0.12129870	     11.47066697	      2.44788965	     -2.15405703	     -1.02119434
      0.52900000	     -2.09731076	      3.66297288	      3.34696209	     -0.67333337	      0.97175629	      0.29774672	     26.82796304	     -0.79581092	     -0.19486971	    -19.03101010	      2.89413202	     -8.86013408	      2.17164970	     -6.75109889	      6.48730292	     -0.37998333	    -30.90450744	      5.59302499	      0.13410168	     17.60224940	      2.48962435	     -1.87029057	     -0.92717791
      0.53316667	     -2.08305809	      3.43835004	      3.30386296	     -0.66727060	      0.97158161	      0.29819047	     26.74700337	     -0.48680322	     -0.08113620	    -19.58580162	      2.81203915	     -9.00125974	      2.16370699	     -6.02286086	      6.14209738	     -0.59082037	    -32.76152133	      4.61589701	      0.21352880	     17.63614782	      2.54664462	     -1.60257212	     -0.84274700
      0.53733333	     -2.05485136	      3.17650572	      3.25475650	     -0.66126314	      0.97142572	      0.29868975	     26.65771387	     -0.12359057	      0.06659851	    -20.15715856	      2.74243532	     -9.50470495	      2.11290270	     -5.26450092	      5.73577467	     -0.83513515	    -34.67469998	      3.61460458	      0.36820144	     17.80268452	      2.57924503	     -1.28083898	     -0.71976189
      0.54150000	     -2.03295867	      2.90560863	      3.20315376	     -0.65528890	      0.97127804	      0.29917307	     26.57173514	      0.24251482	      0.19177450	    -20.71803221	      2.75344638	     -9.80649096	      2.03534716	     -4.47126493	      5.32190238	     -1.05122951	    -36.60531851	      2.52249947	      0.42183621	     18.03728148	      2.61874570	     -0.95092851	     -0.61621384
      0.54566667	     -1.99137263	      2.61863611	      3.13041275	     -0.64934925	      0.97114983	      0.29967177	     26.47201698	      0.62822400	      0.30059786	    -21.28937654	      2.83361935	     -9.96114099	      1.97884220	     -3.67297325	      4.88533642	     -1.27943243	    -38.55135496	      1.39040321	      0.41749112	     18.19371996	      2.63170716	     -0.59669750	     -0.52339967
      0.54983333	     -1.93216849	      2.31242580	      3.07265320	     -0.64345132	      0.97106185	      0.30016983	     26.34025699	      1.03022753	      0.38920290	    -21.83902664	      2.97129691	    -10.17579630	      1.90783081	     -2.86825793	      4.41729226	     -1.47905755	    -40.50805281	      0.19522620	      0.41300281	     18.35946331	      2.61953767	     -0.22928688	     -0.41490317
      0.55400000	     -1.86608481	      1.99408208	      3.01839504	     -0.63759373	      0.97101752	      0.30064720	     26.18398747	      1.44147325	      0.46328075	    -22.35313925	      3.14235658	    -10.39698687	      1.81539264	     -2.04992139	      3.93351206	     -1.65773321	    -42.46561551	     -1.02491997	      0.37331058	     18.53187504	      2.59332867	      0.16183758	     -0.30499068
      0.55816667	     -1.77948492	      1.65539230	      2.96711242	     -0.63176535	      0.97103229	      0.30112689	     25.98392895	      1.87178877	      0.51251801	    -22.82168075	      3.36566935	    -10.53162389	      1.73173529	     -1.23733980	      3.42049678	     -1.82148033	    -44.41050496	     -2.26695206	      0.27879652	     18.64938200	      2.54724689	      0.55112875	     -0.20750576
